# xmcd
#
# Track frame offsets: 
#        150
#        16743
#        37371
#        55563
#        74891
#        90656
#        110024
#        123649
#        145880
#        168465
#
# Disc length: 2482 seconds
#
# Revision: 0
# Processed by: cddbd v1.5.2PL0 Copyright (c) Steve Scherf et al.
# Submitted via: ExactAudioCopy v1.0b3
#
DISCID=9309b00a
DTITLE=Danny Darst - Exit 10
DYEAR=2010
DGENRE=Country Americana
TTITLE0=Western Flyer
TTITLE1=High Street Stroll
TTITLE2=Marilyn
TTITLE3=Highway 99
TTITLE4=Texas
TTITLE5=The Spaniard
TTITLE6=Jimmy's John Deere
TTITLE7=No Responsibility
TTITLE8=Gypsy
TTITLE9=Lady Luck
EXTD=
EXTT0=
EXTT1=
EXTT2=
EXTT3=
EXTT4=
EXTT5=
EXTT6=
EXTT7=
EXTT8=
EXTT9=
PLAYORDER=
